# xmcd
#
# Track frame offsets: 
#        200
#        28940
#        43970
#        57050
#        82520
#        93965
#        107140
#        132600
#        161172
#
# Disc length: 2322 seconds
#
# Revision: 3
# Processed by: cddbd v1.5.2PL0 Copyright (c) Steve Scherf et al.
# Submitted via: ExactAudioCopy v1.0b3
#
DISCID=72091009
DTITLE=Buddy Guy - A Man and The Blues
DYEAR=1968
DGENRE=Blues
TTITLE0=A Man And The Blues
TTITLE1=I Can't Quit The Blues
TTITLE2=Money (That's What I Want)
TTITLE3=One Room Country Shack
TTITLE4=Mary Had A Little Lamb
TTITLE5=Just Playing My Axe
TTITLE6=Sweet Little Angel
TTITLE7=Worry, Worry
TTITLE8=Jam On A Monday Morning
EXTD=
EXTT0=
EXTT1=
EXTT2=
EXTT3=
EXTT4=
EXTT5=
EXTT6=
EXTT7=
EXTT8=
PLAYORDER=
